<?xml version="1.0" encoding="UTF-8" standalone="no"?>
<svg width="991px" height="1103px" viewBox="0 0 991 1103" version="1.1" xmlns="http://www.w3.org/2000/svg" xmlns:xlink="http://www.w3.org/1999/xlink" xmlns:sketch="http://www.bohemiancoding.com/sketch/ns">
    <!-- Generator: Sketch 3.0.1 (7597) - http://www.bohemiancoding.com/sketch -->
    <title>Logo</title>
    <description>Created with Sketch.</description>
    <defs>
        <linearGradient x1="100%" y1="0%" x2="28.8508422%" y2="97.3784722%" id="linearGradient-1">
            <stop stop-color="#E8202D" offset="0%"></stop>
            <stop stop-color="#9C151E" offset="100%"></stop>
        </linearGradient>
        <linearGradient x1="85.4265485%" y1="142.97061%" x2="62.279212%" y2="0%" id="linearGradient-2">
            <stop stop-color="#E8202D" offset="0%"></stop>
            <stop stop-color="#9C151E" offset="100%"></stop>
        </linearGradient>
        <linearGradient x1="100%" y1="0%" x2="14.9496114%" y2="94.7659828%" id="linearGradient-3">
            <stop stop-color="#E8202D" offset="0%"></stop>
            <stop stop-color="#9C151E" offset="100%"></stop>
        </linearGradient>
        <linearGradient x1="94.7644689%" y1="146.587821%" x2="36.0783428%" y2="28.6497665%" id="linearGradient-4">
            <stop stop-color="#E8202D" offset="0%"></stop>
            <stop stop-color="#9C151E" offset="100%"></stop>
        </linearGradient>
        <linearGradient x1="82.9763105%" y1="130.790551%" x2="62.279212%" y2="0%" id="linearGradient-5">
            <stop stop-color="#E8202D" offset="0%"></stop>
            <stop stop-color="#9C151E" offset="100%"></stop>
        </linearGradient>
        <linearGradient x1="50%" y1="0%" x2="50%" y2="98.3395337%" id="linearGradient-6">
            <stop stop-color="#E8202D" offset="0%"></stop>
            <stop stop-color="#9C151E" offset="100%"></stop>
        </linearGradient>
        <linearGradient x1="50%" y1="0%" x2="50%" y2="141.49669%" id="linearGradient-7">
            <stop stop-color="#9C151E" offset="0%"></stop>
            <stop stop-color="#E8202D" offset="100%"></stop>
        </linearGradient>
    </defs>
    <g id="Page-1" stroke="none" stroke-width="1" fill="none" fill-rule="evenodd" sketch:type="MSPage">
        <g id="Logo" sketch:type="MSArtboardGroup">
            <path d="M38,41 C38,41 40.0771478,659.624205 42.497553,671.303998 C82.9755302,866.632581 494.501631,1056 497.5,1056 C500.498369,1056 912.02447,866.632581 952.502447,671.303998 C954.922852,659.624205 957,41 957,41 L38,41 Z" id="Pavéza" stroke="#C50C20" stroke-width="31" fill="#00D9C3" sketch:type="MSShapeGroup"></path>
            <text id="Žižkov-RB" sketch:type="MSTextLayer" font-family="Gloriola" font-size="144" font-weight="260" sketch:alignment="right" fill="#C50C20">
                <tspan x="196.856" y="239">Žižkov RB</tspan>
            </text>
            <g id="Palcát-levo" sketch:type="MSLayerGroup" transform="translate(497.000000, 574.500000) rotate(-45.000000) translate(-497.000000, -574.500000) translate(422.000000, 220.000000)">
                <path d="M75,0 L51,106 L23,105 L75,0 Z" id="Path-9" fill="url(#linearGradient-1)" sketch:type="MSShapeGroup"></path>
                <path d="M23,105 L37,135 L55,135 L51,106 L23,105 Z" id="Path-10" fill="url(#linearGradient-2)" sketch:type="MSShapeGroup"></path>
                <path d="M23,105 L0,100 L75,0 L23,105 Z" id="Path-11" fill="url(#linearGradient-3)" sketch:type="MSShapeGroup"></path>
                <path d="M0,100 L23,133 L37,135 L23,105 L0,100 Z" id="Path-12" fill="url(#linearGradient-4)" sketch:type="MSShapeGroup"></path>
                <path d="M127,0 L103,106 L75,105 L127,0 Z" id="Path-9" fill="url(#linearGradient-1)" sketch:type="MSShapeGroup" transform="translate(101.000000, 53.000000) scale(-1, 1) translate(-101.000000, -53.000000) "></path>
                <path d="M96,105 L111.5,135 L127,135 L124,106 L96,105 Z" id="Path-10" fill="url(#linearGradient-5)" sketch:type="MSShapeGroup" transform="translate(111.500000, 120.000000) scale(-1, 1) translate(-111.500000, -120.000000) "></path>
                <path d="M98,105 L75,100 L150,0 L98,105 Z" id="Path-11" fill="url(#linearGradient-3)" sketch:type="MSShapeGroup" transform="translate(112.500000, 52.500000) scale(-1, 1) translate(-112.500000, -52.500000) "></path>
                <path d="M111,100 L136,133 L150,135 L134,105 L111,100 Z" id="Path-12" fill="url(#linearGradient-4)" sketch:type="MSShapeGroup" transform="translate(130.500000, 117.500000) scale(-1, 1) translate(-130.500000, -117.500000) "></path>
                <path d="M51,106 L99,106 L75,0 L51,106 Z" id="Path-11" fill="url(#linearGradient-6)" sketch:type="MSShapeGroup"></path>
                <path d="M55,135 L51,106 L99,106 L96,135 L55,135 Z" id="Path-12" fill="url(#linearGradient-7)" sketch:type="MSShapeGroup"></path>
                <rect id="Rectangle-1" fill="#C50C20" sketch:type="MSShapeGroup" x="57" y="135" width="36" height="574"></rect>
            </g>
            <g id="Palcát-pravo" sketch:type="MSLayerGroup" transform="translate(497.000000, 574.500000) rotate(45.000000) translate(-497.000000, -574.500000) translate(422.000000, 220.000000)">
                <path d="M75,0 L51,106 L23,105 L75,0 Z" id="Path-9" fill="url(#linearGradient-1)" sketch:type="MSShapeGroup"></path>
                <path d="M23,105 L37,135 L55,135 L51,106 L23,105 Z" id="Path-10" fill="url(#linearGradient-2)" sketch:type="MSShapeGroup"></path>
                <path d="M23,105 L0,100 L75,0 L23,105 Z" id="Path-11" fill="url(#linearGradient-3)" sketch:type="MSShapeGroup"></path>
                <path d="M0,100 L23,133 L37,135 L23,105 L0,100 Z" id="Path-12" fill="url(#linearGradient-4)" sketch:type="MSShapeGroup"></path>
                <path d="M127,0 L103,106 L75,105 L127,0 Z" id="Path-9" fill="url(#linearGradient-1)" sketch:type="MSShapeGroup" transform="translate(101.000000, 53.000000) scale(-1, 1) translate(-101.000000, -53.000000) "></path>
                <path d="M96,105 L111.5,135 L127,135 L124,106 L96,105 Z" id="Path-10" fill="url(#linearGradient-5)" sketch:type="MSShapeGroup" transform="translate(111.500000, 120.000000) scale(-1, 1) translate(-111.500000, -120.000000) "></path>
                <path d="M98,105 L75,100 L150,0 L98,105 Z" id="Path-11" fill="url(#linearGradient-3)" sketch:type="MSShapeGroup" transform="translate(112.500000, 52.500000) scale(-1, 1) translate(-112.500000, -52.500000) "></path>
                <path d="M111,100 L136,133 L150,135 L134,105 L111,100 Z" id="Path-12" fill="url(#linearGradient-4)" sketch:type="MSShapeGroup" transform="translate(130.500000, 117.500000) scale(-1, 1) translate(-130.500000, -117.500000) "></path>
                <path d="M51,106 L99,106 L75,0 L51,106 Z" id="Path-11" fill="url(#linearGradient-6)" sketch:type="MSShapeGroup"></path>
                <path d="M55,135 L51,106 L99,106 L96,135 L55,135 Z" id="Path-12" fill="url(#linearGradient-7)" sketch:type="MSShapeGroup"></path>
                <rect id="Rectangle-1" fill="#C50C20" sketch:type="MSShapeGroup" x="57" y="135" width="36" height="574"></rect>
            </g>
        </g>
    </g>
</svg>